<svg xmlns="http://www.w3.org/2000/svg" xmlns:xlink="http://www.w3.org/1999/xlink" width="148.092" height="51.525" viewBox="0 0 148.092 51.525"><defs><style>.a{fill:url(#a);}.b{fill:#3072f3;}.c{fill:url(#d);}.d{fill:url(#e);}.e{filter:url(#b);}</style><linearGradient id="a" x1="0.5" x2="0.5" y2="1" gradientUnits="objectBoundingBox"><stop offset="0" stop-color="#fff"/><stop offset="0.433" stop-color="#fff"/><stop offset="0.453" stop-color="#65beff"/><stop offset="1" stop-color="#fff"/></linearGradient><filter id="b" x="31.006" y="13.762" width="117.086" height="37.762" filterUnits="userSpaceOnUse"><feOffset dy="3" input="SourceAlpha"/><feGaussianBlur stdDeviation="3" result="c"/><feFlood flood-color="#0126a5"/><feComposite operator="in" in2="c"/><feComposite in="SourceGraphic"/></filter><linearGradient id="d" x1="0.028" y1="0.388" x2="0.915" y2="0.388" gradientUnits="objectBoundingBox"><stop offset="0" stop-color="#fff"/><stop offset="1" stop-color="#66cb87"/></linearGradient><linearGradient id="e" x1="0.5" x2="0.5" y2="1" gradientUnits="objectBoundingBox"><stop offset="0" stop-color="#8fc9ff"/><stop offset="1" stop-color="#4ba4fe"/></linearGradient></defs><g transform="translate(-23.179 -41.604)"><g class="e" transform="matrix(1, 0, 0, 1, 23.18, 41.6)"><path class="a" d="M8.406-.612l.659-4.694h-7.3L3.438-17.3h7.3l.22-1.565-.906-1.043h6.258L15.927-17.3h7.329L21.581-5.306h-7.3l-.22,1.565H22.4l1.153-1.016L22.981-.612ZM15.57-14.693,15.3-12.607H17.9l.3-2.086ZM9.422-7.913,9.724-10H7.116l-.3,2.086Zm7.823,0,.3-2.086H14.911l-.274,2.086ZM7.473-12.607h2.608l.274-2.086H7.775ZM35.2-11.564l.3-2.086,7.411-3.129H28.114l.357-2.608H49.852l-.494,3.651-8.893,3.76-.055.412h8.866l-.357,2.608H40.026l-.961,7a2,2,0,0,1-.714,1.3,2.11,2.11,0,0,1-1.4.508H31.517L33.96-2.7l.878-6.258H25.973l.357-2.608Zm28.436,1.537.22-1.565H59.377l1.1-7.768H74.8l-1.1,7.768H68.929l-.22,1.565h5.38l-.357,2.608h-5.38L67.337-.146H62.259l1.016-7.274h-5.38l.357-2.608Zm-5-6.642L56.33-.173H51.5l2.168-15.508-1.619.329.439-3.156,6.587-1.317ZM56.687-.173,59.1-6.925h3.651L60.338-.173Zm12.324,0L68.737-6.9h3.651l.274,6.725Zm.714-13.889.384-2.827H64.455l-.384,2.827Zm28.354.686-.192,1.29h2.086l-.357,2.608H97.529L97.118-6.6,92.095-4.263,98.9-.612H90.558L87.648-2.177,84.3-.612H75.955l7.8-3.651L79.386-6.6,79.8-9.478H77.712l.357-2.608h2.086l.192-1.29h4.694l-.192,1.29h8.344l.192-1.29Zm-3.321-2.361H84.327l-.22,1.565H78.371l.576-4.172h8.344l.082-.549L86.5-19.908h6.231l-.22,1.565h8.344l-.576,4.172H94.537ZM92.7-8.435l.137-1.043H84.492l-.137,1.043,3.87,2.086Z" transform="translate(38.24 39.67)"/></g><g transform="translate(23.179 41.604)"><path class="b" d="M3.242,39.525l6.241-29.3H0L2.746,0h37.26L38.2,10.224H19.853l-5.606,29.3Z" transform="translate(0 0)"/><path class="c" d="M28.753,10.223H0L2.39,0H30.557l-1.8,10.223Z" transform="translate(9.449 0)"/><path class="d" d="M11,10.868H0L2.314,0H13.083L11,10.867Z" transform="translate(3.243 28.657)"/></g></g></svg>