<svg xmlns="http://www.w3.org/2000/svg" width="28" height="28" viewBox="0 0 28 28"><defs><style>.a{fill:none;}.b{fill:#979cad;}</style></defs><g transform="translate(-1457 -406)"><rect class="a" width="28" height="28" transform="translate(1457 406)"/><g transform="translate(1268.963 219.047)"><path class="b" d="M387.938,225.772h11.739a.909.909,0,0,0,0-1.819H387.938a.909.909,0,0,0,0,1.819Zm0,7.252h11.7a.909.909,0,0,0,0-1.819h-11.7a.909.909,0,0,0,0,1.819Zm11.739,5.473H387.938a.909.909,0,0,0,0,1.819h11.739a.909.909,0,0,0,0-1.819Z" transform="translate(-189.451 -31.091)"/><path class="b" d="M193.855,193.771m-1.819,0a1.818,1.818,0,1,0,1.819-1.818,1.819,1.819,0,0,0-1.819,1.818Z"/><path class="b" d="M193.855,448.605m-1.819,0a1.818,1.818,0,1,0,1.819-1.818A1.819,1.819,0,0,0,192.037,448.605Z" transform="translate(0 -247.593)"/><path class="b" d="M193.855,705.439m-1.819,0a1.818,1.818,0,1,0,1.819-1.818A1.818,1.818,0,0,0,192.037,705.439Z" transform="translate(0 -497.129)"/></g></g></svg>