<svg xmlns="http://www.w3.org/2000/svg" width="86" height="113" viewBox="0 0 86 113"><defs><style>.a{fill:rgba(0,0,0,0.51);}.b{fill:rgba(255,255,255,0.54);}</style></defs><g transform="translate(-1484 -44)"><rect class="a" width="86" height="113" rx="20" transform="translate(1484 44)"/><path class="b" d="M358.346,126.618c-6.978-7.082-13.866-14.119-20.819-21.09-.874-.88-1.016-1.321-.052-2.272,6.668-6.59,13.251-13.258,19.893-19.86.712-.712.932-1.113.052-1.871a47.247,47.247,0,0,1-3.463-3.463c-.466-.492-.744-.634-1.321-.058q-12.808,12.885-25.68,25.693c-.518.518-.55.8-.013,1.34q12.776,12.7,25.5,25.444c.545.547.856.663,1.477.074,1.489-1.418,3.068-2.745,4.421-3.936Z" transform="translate(1184.55 -3.787)"/></g></svg>