<svg xmlns="http://www.w3.org/2000/svg" width="32" height="32" viewBox="0 0 32 32"><defs><style>.a,.c{fill:none;}.a{stroke:#cfd8ed;}.b{fill:#98a6c4;}.d{stroke:none;}</style></defs><g transform="translate(-4574 -250)"><g transform="translate(2731 227)"><g class="a" transform="translate(1843 23)"><rect class="d" width="32" height="32" rx="4"/><rect class="c" x="0.5" y="0.5" width="31" height="31" rx="3.5"/></g></g><g transform="translate(4054 158)"><path class="b" d="M9,18A9,9,0,0,1,2.636,2.637,9,9,0,1,1,15.364,15.363,8.947,8.947,0,0,1,9,18ZM5.746,2.484a.139.139,0,0,0-.059.016A7.269,7.269,0,0,0,1.666,8.914a7.153,7.153,0,0,0,.549,2.842,7.386,7.386,0,0,0,3.879,3.931,7.169,7.169,0,0,0,2.844.59h.017A7.272,7.272,0,0,0,12.218,2.5a.145.145,0,0,0-.062-.016.135.135,0,0,0-.135.134V3.7a.269.269,0,0,0,.127.23,6.09,6.09,0,0,1,1.05.838,6.008,6.008,0,1,1-8.492,0,6.051,6.051,0,0,1,1.05-.838.269.269,0,0,0,.127-.23V2.62A.136.136,0,0,0,5.746,2.484Zm2.637-.779a.141.141,0,0,0-.142.141v8.226a.143.143,0,0,0,.142.141H9.516a.144.144,0,0,0,.144-.141V1.846a.142.142,0,0,0-.144-.141Z" transform="translate(527 99)"/><rect class="c" width="20" height="20" transform="translate(526 98)"/></g></g></svg>