<svg xmlns="http://www.w3.org/2000/svg" width="32" height="32" viewBox="0 0 32 32"><defs><style>.a,.c{fill:none;}.a{stroke:#cfd8ed;}.b{fill:#98a6c4;}.d{stroke:none;}</style></defs><g transform="translate(-4515 -250)"><g class="a" transform="translate(4515 250)"><rect class="d" width="32" height="32" rx="4"/><rect class="c" x="0.5" y="0.5" width="31" height="31" rx="3.5"/></g><g transform="translate(3857 134)"><path class="b" d="M189.789,87h-.517V79.67A6.034,6.034,0,0,0,184.1,73.7v-.836a.862.862,0,1,0-1.724,0V73.7a6.034,6.034,0,0,0-5.171,5.972V87h-.517a.689.689,0,0,0-.689.689v.689a.173.173,0,0,0,.172.172h4.654a2.413,2.413,0,0,0,4.826,0h4.654a.173.173,0,0,0,.172-.172v-.689A.689.689,0,0,0,189.789,87Zm-6.55,2.585a1.034,1.034,0,0,1-1.034-1.034h2.068A1.034,1.034,0,0,1,183.239,89.581Z" transform="translate(490.833 50.719)"/><rect class="c" width="20" height="20" transform="translate(664 122)"/></g></g></svg>