<svg xmlns="http://www.w3.org/2000/svg" width="22" height="24.565" viewBox="0 0 22 24.565"><defs><style>.a{fill:none;}.b{fill:#122eb5;}</style></defs><g transform="translate(0 2.565)"><path class="a" d="M0,0H22V22H0Z"/><path class="b" d="M17.963,20.311a1.317,1.317,0,0,0-.672-.361.329.329,0,0,1-.268-.322V12A5.977,5.977,0,1,0,5.07,11.953v7.674a.329.329,0,0,1-.268.322,1.329,1.329,0,0,0-1.06,1.3h14.61A1.332,1.332,0,0,0,17.963,20.311ZM12.194,9.629l-.4,3.6h1.579L9.9,18.262l.4-3.6H8.722ZM11.047,4.317a.663.663,0,0,1-.664-.664V.664a.664.664,0,1,1,1.328,0V3.652A.663.663,0,0,1,11.047,4.317ZM6.232,6.145A.664.664,0,0,1,5.325,5.9L3.831,3.314a.664.664,0,0,1,1.15-.664L6.475,5.238A.665.665,0,0,1,6.232,6.145Zm9.629,0a.664.664,0,0,0,.907-.243l1.494-2.588a.664.664,0,0,0-1.15-.664L15.618,5.238A.665.665,0,0,0,15.861,6.145ZM4.624,9.233A.663.663,0,0,1,3.81,9.7L.923,8.93a.664.664,0,1,1,.342-1.283l2.887.774A.663.663,0,0,1,4.624,9.233Zm12.846,0a.663.663,0,0,0,.814.469l2.887-.774a.664.664,0,0,0-.344-1.283l-2.887.774A.666.666,0,0,0,17.469,9.233Z" transform="translate(0.338 -2.565)"/></g></svg>