<svg xmlns="http://www.w3.org/2000/svg" width="28" height="28" viewBox="0 0 28 28"><defs><style>.a{fill:none;}.b{fill:#fff;}</style></defs><g transform="translate(-1568 -406)"><rect class="a" width="28" height="28" transform="translate(1568 406)"/><path class="b" d="M23.953,116.711a3.01,3.01,0,0,0-3.08-2.934H3.081A3.01,3.01,0,0,0,0,116.711v13.428a3.01,3.01,0,0,0,3.08,2.934H20.873a3.01,3.01,0,0,0,3.081-2.934V116.712ZM3.08,115.733H20.873a1.006,1.006,0,0,1,1.027.978v2.379H2.053v-2.379a1.006,1.006,0,0,1,1.027-.978Zm17.793,15.385H3.081a1.006,1.006,0,0,1-1.027-.978v-9.094H21.9v9.094a1.006,1.006,0,0,1-1.027.978ZM8.965,126.685H4.312a.979.979,0,1,0,0,1.956H8.965a.979.979,0,1,0,0-1.956Z" transform="translate(1570.023 296.574)"/></g></svg>