<svg xmlns="http://www.w3.org/2000/svg" width="20" height="20" viewBox="0 0 20 20"><defs><style>.a{fill:none;}.b{fill:#122eb5;}</style></defs><path class="a" d="M0,0H20V20H0Z"/><path class="b" d="M14,14H2a2,2,0,0,1-2-2V2A2,2,0,0,1,2,0H14a2,2,0,0,1,2,2V12A2,2,0,0,1,14,14ZM12.328,5.754a.734.734,0,0,0-.734.734v5.268a.734.734,0,1,0,1.467,0V6.487A.734.734,0,0,0,12.328,5.754ZM9.274,8a.734.734,0,0,0-.734.734v3.023a.734.734,0,1,0,1.467,0V8.732A.734.734,0,0,0,9.274,8Zm-3.055-.75a.734.734,0,0,0-.734.734v3.772a.734.734,0,0,0,1.467,0V7.982A.734.734,0,0,0,6.219,7.249ZM3.159,8.681a.728.728,0,0,0-.727.727v2.256a.727.727,0,0,0,1.454,0V9.408A.728.728,0,0,0,3.159,8.681ZM5.677,3.938a.474.474,0,0,0-.306.113L2.607,6.378a.5.5,0,0,0-.065.692.476.476,0,0,0,.68.067L5.648,5.094,7.2,6.673a.476.476,0,0,0,.652.027l4.04-3.464.262.319a.223.223,0,0,0,.227.076.231.231,0,0,0,.168-.175l.329-1.5a.233.233,0,0,0-.048-.2.226.226,0,0,0-.176-.083h-.009l-1.5.071a.228.228,0,0,0-.2.139.235.235,0,0,0,.034.242l.292.355-3.7,3.174L6.017,4.082A.473.473,0,0,0,5.677,3.938Z" transform="translate(2 2.801)"/></svg>