<svg xmlns="http://www.w3.org/2000/svg" width="307" height="306.574" viewBox="0 0 307 306.574"><defs><style>.a{opacity:0.536;}.b{fill:#cee1f8;}.c{fill:#8ab9f2;}.d{fill:#f7f8fc;}.e{fill:#75adec;}.f{fill:#fcd169;}</style></defs><g class="a" transform="translate(-101.9 -103.455)"><path class="b" d="M164,480.378C164,486,215.4,490.6,279.085,490.6S394.171,486,394.171,480.378s-51.4-10.227-115.085-10.227C215.4,470.113,164,474.5,164,480.378M242,232.3h157.53c3.072,0,5.619,2.06,5.619,4.608v205.37c0,2.547-2.547,4.608-5.619,4.608H242c-3.072,0-5.619-2.06-5.619-4.608V236.908C236.378,234.585,238.925,232.3,242,232.3Zm0,0" transform="translate(-38.836 -80.576)"/><path class="c" d="M414.711,537.516A20.768,20.768,0,0,0,434.416,516.8V335.742c0-4.346-3.334-7.942-7.155-7.942H273.027c-4.608.524-7.942,4.083-7.418,7.942V529.611a7.705,7.705,0,0,0,7.418,7.942H414.711Zm0,0" transform="translate(-102.346 -140.299)"/><path class="d" d="M325.37,524.885h51.137a5.132,5.132,0,0,1,0,10.265H325.37a5.132,5.132,0,0,1,0-10.265Zm0-35.814h92.083a5.132,5.132,0,0,1,0,10.265H325.37a5.132,5.132,0,0,1,0-10.265Zm122.765-35.028c0,2.81-1.8,5.357-4.346,5.357H324.583a4.007,4.007,0,0,1-3.821-2.81,6.665,6.665,0,0,1,0-5.357,4.26,4.26,0,0,1,3.821-2.81H443.752c2.323-.037,4.121,2.547,4.383,5.619m0-38.886c0,2.81-1.8,5.357-4.346,5.357H324.583c-2.547,0-4.346-2.547-4.346-5.357s1.8-5.357,4.346-5.357H443.752c2.323,0,4.121,2.547,4.383,5.357" transform="translate(-136.519 -191.58)"/><path class="e" d="M365.465,785.2H217.9v16.109c0,12.513,8.691,22.253,20.455,22.253H385.4c-11.014,0-19.93-9.965-19.93-22.253Zm0,0" transform="translate(-72.543 -426.345)"/><path class="f" d="M380.4,114.9a6.646,6.646,0,0,0,3.334,5.619,5.843,5.843,0,0,0,6.406,0,6.4,6.4,0,0,0,0-11.239,5.843,5.843,0,0,0-6.406,0A7.272,7.272,0,0,0,380.4,114.9Zm0,0M173,110.028a2.911,2.911,0,0,0-3.821-1.011l-11.239,6.893a2.045,2.045,0,0,0-1.011,1.011A3.215,3.215,0,0,0,157.944,121l10.49,6.144a4.309,4.309,0,0,0,1.274.524,2.688,2.688,0,0,0,3.072-2.547l.787-13.037c-.075-1.049-.075-1.536-.562-2.06Zm5.357,15.36a8.331,8.331,0,0,1-8.954,7.68,16.818,16.818,0,0,1-3.6-1.011l-10.49-6.144c-4.083-2.547-5.619-7.68-3.334-11.5a10.024,10.024,0,0,1,2.81-2.81l11.239-6.893c3.821-2.547,9.216-1.011,11.763,2.81a7.417,7.417,0,0,1,1.274,5.132l-.712,12.737ZM404.711,312.326a2.137,2.137,0,0,0-2.547-.749l-7.155,4.083c-.262.262-.525.262-.525.524-.524,1.011-.262,1.8.787,2.547l6.893,4.083c.262.262.524.262,1.011.262a1.451,1.451,0,0,0,1.8-1.536l.262-8.167c-.037-.3-.3-.562-.524-1.049Zm4.083,9.7a4.823,4.823,0,0,1-5.882,4.608c-1.012,0-1.536-.524-2.547-1.012l-6.893-4.083a5.6,5.6,0,0,1-2.285-7.418,4.243,4.243,0,0,1,1.536-1.536l7.155-4.083a6.26,6.26,0,0,1,7.942,2.06,4.071,4.071,0,0,1,1.012,3.334v8.129Zm0,0M114.675,292.883A12.649,12.649,0,0,1,101.9,280.108c0-7.418,5.619-13.3,12.775-13.3a12.649,12.649,0,0,1,12.775,12.775A12.469,12.469,0,0,1,114.675,292.883Zm0-18.169a5.193,5.193,0,0,0-5.132,5.357,5.337,5.337,0,0,0,5.132,5.357,5.193,5.193,0,0,0,5.132-5.357C120.294,276.774,118.009,274.714,114.675,274.714Zm0,0"/></g></svg>