<svg xmlns="http://www.w3.org/2000/svg" xmlns:xlink="http://www.w3.org/1999/xlink" width="87" height="89.254" viewBox="0 0 87 89.254"><defs><style>.a{fill:none;}.b{fill:rgba(41,74,235,0.38);}.c{fill:#122eb5;}.d{fill:#fff;}.e{filter:url(#h);}.f{filter:url(#f);}.g{filter:url(#c);}.h{filter:url(#a);}</style><filter id="a" x="11.84" y="10.895" width="59.925" height="59.925" filterUnits="userSpaceOnUse"><feOffset dy="2" input="SourceAlpha"/><feGaussianBlur stdDeviation="1.5" result="b"/><feFlood flood-color="#005ff7" flood-opacity="0.373"/><feComposite operator="in" in2="b"/><feComposite in="SourceGraphic"/></filter><filter id="c" x="11.84" y="10.895" width="59.925" height="59.925" filterUnits="userSpaceOnUse"><feOffset dx="-1" dy="1" input="SourceAlpha"/><feGaussianBlur stdDeviation="1.5" result="d"/><feFlood flood-color="#bcdeff" result="e"/><feComposite operator="out" in="SourceGraphic" in2="d"/><feComposite operator="in" in="e"/><feComposite operator="in" in2="SourceGraphic"/></filter><filter id="f" x="40.698" y="7.5" width="34.463" height="34.463" filterUnits="userSpaceOnUse"><feOffset dy="2" input="SourceAlpha"/><feGaussianBlur stdDeviation="1.5" result="g"/><feFlood flood-color="#005ff7" flood-opacity="0.373"/><feComposite operator="in" in2="g"/><feComposite in="SourceGraphic"/></filter><filter id="h" x="40.698" y="7.5" width="34.463" height="34.463" filterUnits="userSpaceOnUse"><feOffset dx="-1" dy="1" input="SourceAlpha"/><feGaussianBlur stdDeviation="1.5" result="i"/><feFlood flood-color="#bcdeff" result="j"/><feComposite operator="out" in="SourceGraphic" in2="i"/><feComposite operator="in" in="j"/><feComposite operator="in" in2="SourceGraphic"/></filter></defs><g transform="translate(-1477 -360)"><rect class="a" width="87" height="87" transform="translate(1477 360)"/><ellipse class="b" cx="19" cy="5" rx="19" ry="5" transform="translate(1501.5 427)"/><g transform="translate(1493.34 370)"><g data-type="innerShadowGroup"><g class="h" transform="matrix(1, 0, 0, 1, -16.34, -10)"><path class="c" d="M50.925,89.463A25.463,25.463,0,1,1,25.463,64V89.463Z" transform="translate(16.34 -50.6)"/></g><g class="g" transform="matrix(1, 0, 0, 1, -16.34, -10)"><path class="d" d="M50.925,89.463A25.463,25.463,0,1,1,25.463,64V89.463Z" transform="translate(16.34 -50.6)"/></g></g><g data-type="innerShadowGroup"><g class="f" transform="matrix(1, 0, 0, 1, -16.34, -10)"><path class="c" d="M569.463,25.463H544V0a25.463,25.463,0,0,1,25.463,25.463Z" transform="translate(-498.8 10)"/></g><g class="e" transform="matrix(1, 0, 0, 1, -16.34, -10)"><path class="d" d="M569.463,25.463H544V0a25.463,25.463,0,0,1,25.463,25.463Z" transform="translate(-498.8 10)"/></g></g></g></g></svg>