<svg xmlns="http://www.w3.org/2000/svg" xmlns:xlink="http://www.w3.org/1999/xlink" width="87" height="89.254" viewBox="0 0 87 89.254"><defs><style>.a{fill:none;}.b{fill:rgba(41,74,235,0.38);}.c{fill:#122eb5;}.d{fill:#fff;}.e{filter:url(#c);}.f{filter:url(#a);}</style><filter id="a" x="15.5" y="7.5" width="56" height="61.536" filterUnits="userSpaceOnUse"><feOffset dy="2" input="SourceAlpha"/><feGaussianBlur stdDeviation="1.5" result="b"/><feFlood flood-color="#005ff7" flood-opacity="0.373"/><feComposite operator="in" in2="b"/><feComposite in="SourceGraphic"/></filter><filter id="c" x="15.5" y="7.5" width="56" height="61.536" filterUnits="userSpaceOnUse"><feOffset dx="-1" dy="1" input="SourceAlpha"/><feGaussianBlur stdDeviation="1.5" result="d"/><feFlood flood-color="#bcdeff" result="e"/><feComposite operator="out" in="SourceGraphic" in2="d"/><feComposite operator="in" in="e"/><feComposite operator="in" in2="SourceGraphic"/></filter></defs><g transform="translate(-1711 -456)"><rect class="a" width="87" height="87" transform="translate(1711 456)"/><ellipse class="b" cx="19" cy="5" rx="19" ry="5" transform="translate(1735.5 523)"/><g data-type="innerShadowGroup"><g class="f" transform="matrix(1, 0, 0, 1, 1711, 456)"><path class="c" d="M189.439,154.529l-21.546-11.058-19.932,11.065a2.762,2.762,0,0,1-2.761-2.761V104.761A2.762,2.762,0,0,1,147.961,102h41.478a2.762,2.762,0,0,1,2.761,2.761v47.007A2.762,2.762,0,0,1,189.439,154.529Zm-16.875-37.4-3.863-8.22-3.85,8.213-8.585,1.307,6.215,6.356-1.474,9.008,7.695-4.248,7.7,4.248-1.474-9.008,6.215-6.356Zm0,0" transform="translate(-125.2 -92)"/></g><g class="e" transform="matrix(1, 0, 0, 1, 1711, 456)"><path class="d" d="M189.439,154.529l-21.546-11.058-19.932,11.065a2.762,2.762,0,0,1-2.761-2.761V104.761A2.762,2.762,0,0,1,147.961,102h41.478a2.762,2.762,0,0,1,2.761,2.761v47.007A2.762,2.762,0,0,1,189.439,154.529Zm-16.875-37.4-3.863-8.22-3.85,8.213-8.585,1.307,6.215,6.356-1.474,9.008,7.695-4.248,7.7,4.248-1.474-9.008,6.215-6.356Zm0,0" transform="translate(-125.2 -92)"/></g></g></g></svg>