<svg xmlns="http://www.w3.org/2000/svg" width="27.097" height="27.096" viewBox="0 0 27.097 27.096"><defs><style>.a{fill:#122eb5;}</style></defs><path class="a" d="M-10051.451,27.1a13.466,13.466,0,0,1-9.582-3.968,13.458,13.458,0,0,1-3.968-9.579,13.462,13.462,0,0,1,3.968-9.58A13.463,13.463,0,0,1-10051.451,0a13.457,13.457,0,0,1,9.579,3.969,13.463,13.463,0,0,1,3.968,9.58,13.459,13.459,0,0,1-3.968,9.579A13.459,13.459,0,0,1-10051.451,27.1Zm-1.474-9.669a.357.357,0,0,1,.229.083l2.5,2.089a.369.369,0,0,0,.23.083.34.34,0,0,0,.111-.018.365.365,0,0,0,.234-.255l2.88-11.549a.362.362,0,0,0-.116-.359.364.364,0,0,0-.235-.088.345.345,0,0,0-.136.028l-11.552,4.83a.356.356,0,0,0-.217.278.368.368,0,0,0,.124.331l2.516,2.1a.362.362,0,0,0,.23.083.36.36,0,0,0,.217-.073l6.15-4.63-5.211,5.229a.37.37,0,0,0-.1.255v2.715a.357.357,0,0,0,.222.331.359.359,0,0,0,.138.028.361.361,0,0,0,.252-.1l1.283-1.286A.36.36,0,0,1-10052.925,17.427Z" transform="translate(10065.001)"/></svg>