<svg xmlns="http://www.w3.org/2000/svg" width="25.324" height="24.255" viewBox="0 0 25.324 24.255"><defs><style>.a{fill:#ffb01a;}</style></defs><path class="a" d="M54.563,61.938l-2.976,6.03-6.655.967a1.729,1.729,0,0,0-.958,2.949l4.815,4.694-1.137,6.628a1.729,1.729,0,0,0,.174,1.1l.084.144a1.729,1.729,0,0,0,2.252.582L56.113,81.9l5.951,3.129a1.729,1.729,0,0,0,2.51-1.823l-1.137-6.628,4.815-4.692a1.729,1.729,0,0,0-.958-2.951l-6.655-.966-2.975-6.03a1.729,1.729,0,0,0-3.1,0Zm1.551,2.068,2.459,4.982.09.166a2.306,2.306,0,0,0,1.646,1.1l5.5.8-3.978,3.88-.13.137a2.306,2.306,0,0,0-.533,1.9l.938,5.475-5.453-2.866-.129-.058a1.153,1.153,0,0,0-.945.058l-5.453,2.865.94-5.475.024-.187a2.306,2.306,0,0,0-.687-1.854l-3.979-3.88,5.5-.8a2.306,2.306,0,0,0,1.735-1.261Z" transform="translate(-43.452 -60.973)"/></svg>