<svg xmlns="http://www.w3.org/2000/svg" width="25.324" height="24.256" viewBox="0 0 25.324 24.256"><defs><style>.a{fill:#ffb01a;}</style></defs><path class="a" d="M-10062.543-271.527l-.083-.144a1.742,1.742,0,0,1-.175-1.1l1.137-6.627-4.812-4.694a1.728,1.728,0,0,1-.439-1.771,1.729,1.729,0,0,1,1.4-1.177l6.655-.968,2.974-6.031a1.734,1.734,0,0,1,1.554-.965,1.726,1.726,0,0,1,1.549.965l2.977,6.031,6.654.965a1.734,1.734,0,0,1,1.4,1.177,1.73,1.73,0,0,1-.439,1.774l-4.815,4.694,1.137,6.627a1.729,1.729,0,0,1-.687,1.693,1.732,1.732,0,0,1-1.821.131l-5.952-3.13-5.95,3.13a1.73,1.73,0,0,1-.8.2A1.733,1.733,0,0,1-10062.543-271.527Z" transform="translate(10067 295.001)"/></svg>