<svg xmlns="http://www.w3.org/2000/svg" width="19" height="19" viewBox="0 0 19 19"><defs><style>.a{fill:#ffdbdb;}.b{fill:#f05050;}</style></defs><g transform="translate(-375 -335)"><circle class="a" cx="9.5" cy="9.5" r="9.5" transform="translate(375 335)"/><path class="b" d="M43.9,35.719a.558.558,0,0,1-.558-.558V34.084L40.383,37.04a.559.559,0,0,1-.79,0c-.007-.007-.011-.014-.017-.021s-.024-.018-.035-.028l-2.609-2.608-3.618,3.612a.571.571,0,0,1-.8-.8l3.939-3.933a.472.472,0,0,1,.185-.113.571.571,0,0,1,.718.079l2.634,2.633,2.743-2.742H41.3A.558.558,0,0,1,41.3,32h2.6a.558.558,0,0,1,.558.558v2.6A.558.558,0,0,1,43.9,35.719Z" transform="translate(346.306 309.651)"/></g></svg>