<svg xmlns="http://www.w3.org/2000/svg" width="27.997" height="28" viewBox="0 0 27.997 28"><defs><style>.a{fill:#122eb5;}</style></defs><path class="a" d="M111.1,98.2a14,14,0,1,0,14,14A14,14,0,0,0,111.1,98.2Zm.091,22.75h-.067a1.751,1.751,0,0,1,0-3.5h.067a1.751,1.751,0,0,1,0,3.5Zm5.324-10.79a4.443,4.443,0,0,1-1.636,2.058c-.341.236-.665.469-.968.705a4.45,4.45,0,0,0-.806.806,2.275,2.275,0,0,0-.432,1.076,2.69,2.69,0,0,1-.226.823,1.5,1.5,0,0,1-1.275.715h-.057a1.6,1.6,0,0,1-1.38-.83,2.044,2.044,0,0,1-.138-.806,4.422,4.422,0,0,1,1.093-2.763,5.694,5.694,0,0,1,.867-.806c.3-.226.584-.455.84-.682a3.054,3.054,0,0,0,.628-.752,1.876,1.876,0,0,0,.216-1.022,2.07,2.07,0,0,0-.509-1.545,1.948,1.948,0,0,0-1.424-.5,2.2,2.2,0,0,0-1.056.24,2.11,2.11,0,0,0-.729.638,2.728,2.728,0,0,0-.418.931,3.237,3.237,0,0,1-.229.6,1.588,1.588,0,0,1-1.38.81h-.061a1.6,1.6,0,0,1-1.6-1.6,2.139,2.139,0,0,1,.054-.466,3.574,3.574,0,0,1,.155-.452,5.34,5.34,0,0,1,1.117-1.775,5.027,5.027,0,0,1,1.727-1.171,5.859,5.859,0,0,1,2.264-.418,7.114,7.114,0,0,1,2.7.445,5.285,5.285,0,0,1,1.741,1.1,4.088,4.088,0,0,1,1.228,2.844,5.282,5.282,0,0,1-.3,1.788Z" transform="translate(-97.1 -98.2)"/></svg>