<svg xmlns="http://www.w3.org/2000/svg" width="27.097" height="27.097" viewBox="0 0 27.097 27.097"><defs><style>.a{fill:#122eb5;}</style></defs><path class="a" d="M-12043.451,36.1a13.462,13.462,0,0,1-9.581-3.967,13.455,13.455,0,0,1-3.969-9.58,13.46,13.46,0,0,1,3.969-9.581A13.463,13.463,0,0,1-12043.451,9a13.457,13.457,0,0,1,9.58,3.969,13.467,13.467,0,0,1,3.967,9.581,13.463,13.463,0,0,1-3.967,9.58A13.46,13.46,0,0,1-12043.451,36.1Zm0-11.747h0l5.6,5.6,1.2-1.2-5.6-5.6,5.6-5.6-1.2-1.2-5.6,5.6-5.6-5.6-1.2,1.2,5.6,5.6-5.6,5.6,1.2,1.2,5.6-5.6Z" transform="translate(12057.001 -8.999)"/></svg>