<svg xmlns="http://www.w3.org/2000/svg" width="19" height="19" viewBox="0 0 19 19"><defs><style>.a{fill:#dbffee;}.b{fill:#1fcb89;}</style></defs><g transform="translate(-422 -335)"><circle class="a" cx="9.5" cy="9.5" r="9.5" transform="translate(422 335)"/><path class="b" d="M43.9,34.416a.558.558,0,0,0-.558.558v1.078l-2.958-2.957a.559.559,0,0,0-.79,0c-.007.007-.011.014-.017.021s-.024.018-.035.028l-2.609,2.608L33.313,32.14a.571.571,0,0,0-.8.8l3.939,3.933a.472.472,0,0,0,.185.113.571.571,0,0,0,.718-.079l2.634-2.633,2.743,2.742H41.3a.558.558,0,0,0,0,1.116h2.6a.558.558,0,0,0,.558-.558v-2.6A.558.558,0,0,0,43.9,34.416Z" transform="translate(393.306 309.651)"/></g></svg>