<svg xmlns="http://www.w3.org/2000/svg" xmlns:xlink="http://www.w3.org/1999/xlink" width="87" height="92.19" viewBox="0 0 87 92.19"><defs><style>.a{fill:#122eb5;}.b{fill:#fff;}.c{fill:rgba(41,74,235,0.38);}.d{fill:none;}.e{filter:url(#c);}.f{filter:url(#a);}</style><filter id="a" x="9.201" y="4.564" width="67.599" height="67.651" filterUnits="userSpaceOnUse"><feOffset dy="2" input="SourceAlpha"/><feGaussianBlur stdDeviation="1.5" result="b"/><feFlood flood-color="#005ff7" flood-opacity="0.373"/><feComposite operator="in" in2="b"/><feComposite in="SourceGraphic"/></filter><filter id="c" x="9.201" y="4.564" width="67.599" height="67.651" filterUnits="userSpaceOnUse"><feOffset dx="-1" dy="1" input="SourceAlpha"/><feGaussianBlur stdDeviation="1.5" result="d"/><feFlood flood-color="#bcdeff" result="e"/><feComposite operator="out" in="SourceGraphic" in2="d"/><feComposite operator="in" in="e"/><feComposite operator="in" in2="SourceGraphic"/></filter></defs><g transform="translate(-174 -455)"><g data-type="innerShadowGroup"><g class="f" transform="matrix(1, 0, 0, 1, 174, 455)"><path class="a" d="M48.822,56.057a3.635,3.635,0,0,0-1.856-1,.907.907,0,0,1-.739-.888V33.117a16.5,16.5,0,1,0-32.991-.126V54.172a.907.907,0,0,1-.739.888A3.668,3.668,0,0,0,9.57,58.651H49.893a3.677,3.677,0,0,0-1.071-2.595ZM32.9,26.576,31.787,36.5h4.359L26.57,50.4l1.111-9.926H23.316ZM29.731,11.914A1.831,1.831,0,0,1,27.9,10.081V1.833a1.833,1.833,0,1,1,3.666,0v8.248A1.831,1.831,0,0,1,29.731,11.914ZM16.443,16.96a1.833,1.833,0,0,1-2.5-.67L9.816,9.147a1.832,1.832,0,1,1,3.173-1.833l4.124,7.142A1.835,1.835,0,0,1,16.443,16.96Zm26.576,0a1.833,1.833,0,0,0,2.5-.67l4.124-7.142a1.832,1.832,0,0,0-3.173-1.833l-4.124,7.142A1.835,1.835,0,0,0,43.019,16.96ZM12,25.482a1.83,1.83,0,0,1-2.245,1.294L1.792,24.646a1.832,1.832,0,1,1,.945-3.54L10.7,23.243A1.829,1.829,0,0,1,12,25.482Zm35.454,0A1.83,1.83,0,0,0,49.7,26.777l7.967-2.136a1.833,1.833,0,0,0-.951-3.54l-7.967,2.136A1.839,1.839,0,0,0,47.458,25.482Z" transform="translate(13.27 7.06)"/></g><g class="e" transform="matrix(1, 0, 0, 1, 174, 455)"><path class="b" d="M48.822,56.057a3.635,3.635,0,0,0-1.856-1,.907.907,0,0,1-.739-.888V33.117a16.5,16.5,0,1,0-32.991-.126V54.172a.907.907,0,0,1-.739.888A3.668,3.668,0,0,0,9.57,58.651H49.893a3.677,3.677,0,0,0-1.071-2.595ZM32.9,26.576,31.787,36.5h4.359L26.57,50.4l1.111-9.926H23.316ZM29.731,11.914A1.831,1.831,0,0,1,27.9,10.081V1.833a1.833,1.833,0,1,1,3.666,0v8.248A1.831,1.831,0,0,1,29.731,11.914ZM16.443,16.96a1.833,1.833,0,0,1-2.5-.67L9.816,9.147a1.832,1.832,0,1,1,3.173-1.833l4.124,7.142A1.835,1.835,0,0,1,16.443,16.96Zm26.576,0a1.833,1.833,0,0,0,2.5-.67l4.124-7.142a1.832,1.832,0,0,0-3.173-1.833l-4.124,7.142A1.835,1.835,0,0,0,43.019,16.96ZM12,25.482a1.83,1.83,0,0,1-2.245,1.294L1.792,24.646a1.832,1.832,0,1,1,.945-3.54L10.7,23.243A1.829,1.829,0,0,1,12,25.482Zm35.454,0A1.83,1.83,0,0,0,49.7,26.777l7.967-2.136a1.833,1.833,0,0,0-.951-3.54l-7.967,2.136A1.839,1.839,0,0,0,47.458,25.482Z" transform="translate(13.27 7.06)"/></g></g><ellipse class="c" cx="19" cy="5" rx="19" ry="5" transform="translate(198 524.936)"/><rect class="d" width="87" height="87" transform="translate(174 455)"/></g></svg>