<svg xmlns="http://www.w3.org/2000/svg" xmlns:xlink="http://www.w3.org/1999/xlink" width="87" height="89.433" viewBox="0 0 87 89.433"><defs><style>.a{fill:none;}.b{fill:rgba(41,74,235,0.38);}.c{fill:#122eb5;}.d{fill:#fff;}.e{filter:url(#c);}.f{filter:url(#a);}</style><filter id="a" x="11.638" y="7.32" width="63.725" height="63.718" filterUnits="userSpaceOnUse"><feOffset dy="2" input="SourceAlpha"/><feGaussianBlur stdDeviation="1.5" result="b"/><feFlood flood-color="#005ff7" flood-opacity="0.373"/><feComposite operator="in" in2="b"/><feComposite in="SourceGraphic"/></filter><filter id="c" x="11.638" y="7.32" width="63.725" height="63.718" filterUnits="userSpaceOnUse"><feOffset dx="-1" dy="1" input="SourceAlpha"/><feGaussianBlur stdDeviation="1.5" result="d"/><feFlood flood-color="#bcdeff" result="e"/><feComposite operator="out" in="SourceGraphic" in2="d"/><feComposite operator="in" in="e"/><feComposite operator="in" in2="SourceGraphic"/></filter></defs><g transform="translate(-1163 -388)"><rect class="a" width="87" height="87" transform="translate(1163 388)"/><ellipse class="b" cx="19" cy="5" rx="19" ry="5" transform="translate(1185.138 455.179)"/><g data-type="innerShadowGroup"><g class="f" transform="matrix(1, 0, 0, 1, 1163, 388)"><path class="c" d="M1.032,21.663,52.558.119A1.61,1.61,0,0,1,54.73,1.991L41.892,53.5a1.6,1.6,0,0,1-2.577.848L28.17,45.032a1.6,1.6,0,0,0-2.157.1L20.3,50.863a1.6,1.6,0,0,1-2.732-1.13V37.618a1.59,1.59,0,0,1,.468-1.136L41.275,13.158,13.834,33.811a1.6,1.6,0,0,1-1.987-.052L.622,24.379a1.613,1.613,0,0,1,.41-2.716Z" transform="translate(16.09 9.82)"/></g><g class="e" transform="matrix(1, 0, 0, 1, 1163, 388)"><path class="d" d="M1.032,21.663,52.558.119A1.61,1.61,0,0,1,54.73,1.991L41.892,53.5a1.6,1.6,0,0,1-2.577.848L28.17,45.032a1.6,1.6,0,0,0-2.157.1L20.3,50.863a1.6,1.6,0,0,1-2.732-1.13V37.618a1.59,1.59,0,0,1,.468-1.136L41.275,13.158,13.834,33.811a1.6,1.6,0,0,1-1.987-.052L.622,24.379a1.613,1.613,0,0,1,.41-2.716Z" transform="translate(16.09 9.82)"/></g></g></g></svg>